<?xml version="1.0" encoding="UTF-8" standalone="no"?>
<svg
   version="1.1"
   width="64"
   height="64"
   color-interpolation="linearRGB"
   id="svg66"
   sodipodi:docname="Folder_noaccess.svg"
   inkscape:version="1.1 (ce6663b3b7, 2021-05-25)"
   xmlns:inkscape="http://www.inkscape.org/namespaces/inkscape"
   xmlns:sodipodi="http://sodipodi.sourceforge.net/DTD/sodipodi-0.dtd"
   xmlns:xlink="http://www.w3.org/1999/xlink"
   xmlns="http://www.w3.org/2000/svg"
   xmlns:svg="http://www.w3.org/2000/svg"
   xmlns:rdf="http://www.w3.org/1999/02/22-rdf-syntax-ns#"
   xmlns:cc="http://creativecommons.org/ns#"
   xmlns:dc="http://purl.org/dc/elements/1.1/">
  <metadata
     id="metadata72">
    <rdf:RDF>
      <cc:Work
         rdf:about="">
        <dc:format>image/svg+xml</dc:format>
        <dc:type
           rdf:resource="http://purl.org/dc/dcmitype/StillImage" />
      </cc:Work>
    </rdf:RDF>
  </metadata>
  <defs
     id="defs70">
    <linearGradient
       inkscape:collect="always"
       xlink:href="#gradient0"
       id="linearGradient897"
       gradientUnits="userSpaceOnUse"
       x1="102.6"
       y1="8.5"
       x2="102.74"
       y2="47.07" />
    <linearGradient
       inkscape:collect="always"
       xlink:href="#gradient1"
       id="linearGradient899"
       gradientUnits="userSpaceOnUse"
       x1="103.24"
       y1="12.68"
       x2="103.39"
       y2="55.34" />
  </defs>
  <sodipodi:namedview
     pagecolor="#ffffff"
     bordercolor="#666666"
     borderopacity="1"
     objecttolerance="10"
     gridtolerance="10"
     guidetolerance="10"
     inkscape:pageopacity="0"
     inkscape:pageshadow="2"
     inkscape:window-width="1920"
     inkscape:window-height="1017"
     id="namedview68"
     showgrid="false"
     inkscape:zoom="6.6640625"
     inkscape:cx="-2.3259086"
     inkscape:cy="28.961313"
     inkscape:window-x="0"
     inkscape:window-y="0"
     inkscape:window-maximized="1"
     inkscape:current-layer="svg66"
     inkscape:pagecheckerboard="0" />
  <g
     id="g36">
    <path
       style="fill:#010101; fill-opacity:0.396"
       d="M42 61H48L52 57H56L62 51L48 47L42 61z"
       id="path2" />
    <path
       style="fill:none; stroke:#000000; stroke-width:4"
       d="M3 15L13 41L42 59L60 12L48 10L44 12L26 8L24 13L16 11L15.91 19.2L3 15z"
       id="path4" />
    <linearGradient
       id="gradient0"
       gradientUnits="userSpaceOnUse"
       x1="102.6"
       y1="8.5"
       x2="102.74"
       y2="47.07">
      <stop
         offset="0"
         stop-color="#face79"
         id="stop6" />
      <stop
         offset="1"
         stop-color="#bc4105"
         id="stop8" />
    </linearGradient>
    <path
       style="fill:url(#gradient0)"
       d="M26 8L14 41L42 58L60 12L48 10L44 12L26 8z"
       id="path11" />
    <linearGradient
       id="gradient1"
       gradientUnits="userSpaceOnUse"
       x1="103.24"
       y1="12.68"
       x2="103.39"
       y2="55.34">
      <stop
         offset="0"
         stop-color="#ffffff"
         id="stop13" />
      <stop
         offset="1"
         stop-color="#8e8e8e"
         id="stop15" />
    </linearGradient>
    <path
       style="fill:url(#gradient1)"
       d="M16 11V41L42 57L49 22L16 11z"
       id="path18" />
    <linearGradient
       id="gradient2"
       gradientUnits="userSpaceOnUse"
       x1="78.34"
       y1="-26.66"
       x2="101.46"
       y2="12.94">
      <stop
         offset="0"
         stop-color="#9a9a9a"
         id="stop20" />
      <stop
         offset="1"
         stop-color="#505050"
         id="stop22" />
    </linearGradient>
    <path
       style="fill:url(#gradient2)"
       d="M16 11L49 22L42 57L52 20.37L16 11z"
       id="path25" />
    <linearGradient
       id="gradient3"
       gradientUnits="userSpaceOnUse"
       x1="88.52"
       y1="9.59"
       x2="97.54"
       y2="51.29">
      <stop
         offset="0"
         stop-color="#ffe2ac"
         id="stop27" />
      <stop
         offset="1"
         stop-color="#f49806"
         id="stop29" />
    </linearGradient>
    <path
       style="fill:url(#gradient3)"
       d="M3 15L13 41L42 59L38 30L3 15z"
       id="path32" />
    <path
       style="fill:#a03d03"
       d="M3 15L38 30L42 59L40.5 28L3 15z"
       id="path34" />
  </g>
  <g
     id="g64"
     transform="matrix(1.4804803,0,0,1.4804803,-30.621332,-29.37537)">
    <path
       style="fill:none;stroke:#000000;stroke-width:4"
       d="m 40,56 c -4,-4 0,-12 0,-12 h 20 c 0,0 4,8 0,12 -4,4 -16,4 -20,0 z"
       transform="matrix(1,0,0,0.9473,0,3.2114)"
       id="path38" />
    <path
       style="fill:none;stroke:#000000;stroke-width:8"
       d="m 44,48 v -8 c 0,0 0,-4 6,-4 6,0 6,4 6,4 v 8 z"
       id="path40" />
    <radialGradient
       id="radialGradient48"
       gradientUnits="userSpaceOnUse"
       cx="0"
       cy="0"
       r="64"
       gradientTransform="matrix(0.1562,0,0,0.1562,51,43)">
      <stop
         offset="0.4178"
         stop-color="#a8a8a8"
         id="stop42" />
      <stop
         offset="0.5898"
         stop-color="#272727"
         id="stop44" />
      <stop
         offset="0.9831"
         stop-color="#d0d0d0"
         id="stop46" />
    </radialGradient>
    <path
       style="fill:none;stroke:url(#linearGradient897);stroke-width:4"
       d="m 44,48 v -8 c 0,0 0,-4 6,-4 6,0 6,4 6,4 v 8 z"
       id="path50" />
    <linearGradient
       id="linearGradient56"
       gradientUnits="userSpaceOnUse"
       x1="41.810001"
       y1="8.6999998"
       x2="76.730003"
       y2="39.41">
      <stop
         offset="0.45"
         stop-color="#f6ed5a"
         id="stop52" />
      <stop
         offset="1"
         stop-color="#555400"
         id="stop54" />
    </linearGradient>
    <path
       style="fill:url(#linearGradient899)"
       d="m 40,56 c -4,-4 0,-12 0,-12 h 20 c 0,0 4,8 0,12 -4,4 -16,4 -20,0 z"
       id="path58" />
    <path
       style="fill:#000000"
       d="m 50,49 c -1,0 -2,1 -2,2 0,1 0,1 1,2 0,2 0,3 1,3 1,0 1,-1 1,-3 1,-1 1,-1 1,-2 0,-1 -1,-2 -2,-2 z"
       id="path60" />
    <path
       style="fill:none;stroke:#000000;stroke-width:1"
       d="M 40,44 H 60"
       id="path62" />
  </g>
</svg>
